<svg xmlns="http://www.w3.org/2000/svg" id="SvgjsSvg17865" width="4096" height="924.2510165829572" version="1.1" xmlns:xlink="http://www.w3.org/1999/xlink" xmlns:svgjs="http://svgjs.com/svgjs"><defs id="SvgjsDefs17866"></defs><g id="SvgjsG17867" transform="translate(327.9999999999998, 328) scale(34.4)" opacity="1"><defs id="SvgjsDefs5452"></defs><g id="SvgjsG5453" transform="scale(0.15557771593476766)" opacity="1"><g id="SvgjsG5454" class="text" transform="translate(87.79, 43.752821203314575) scale(1 1)" light-content="false" fill="#544f4f"><path d="M-57.53 0L-57.53 -37.36L-63.57 -37.36L-63.57 -9.65L-81.75 -37.36L-87.79 -37.36L-87.79 0L-81.75 0L-81.75 -27.61L-63.57 0Z M-27.9 -8.11L-25.04 0L-18.58 0L-32.3 -36.83L-39.25 -36.83L-53.03 0L-46.56 0L-43.7 -8.11ZM-29.6 -12.77L-42 -12.77L-35.8 -30.26Z M14.07 -34.29C11.03 -36.62 7.22 -37.79 2.62 -37.79C-0.91 -37.79 -4.04 -36.98 -6.76 -35.35C-9.48 -33.73 -11.58 -31.47 -13.06 -28.59C-14.55 -25.71 -15.29 -22.42 -15.29 -18.71C-15.29 -15 -14.55 -11.7 -13.06 -8.82C-11.58 -5.94 -9.48 -3.7 -6.76 -2.09C-4.04 -0.49 -0.91 0.32 2.62 0.32C7.22 0.32 11.03 -0.84 14.07 -3.15C17.11 -5.47 19.16 -8.62 20.22 -12.61L13.81 -12.61C12.92 -10.39 11.52 -8.61 9.59 -7.29C7.67 -5.96 5.31 -5.3 2.52 -5.3C0.29 -5.3 -1.7 -5.85 -3.44 -6.94C-5.19 -8.04 -6.57 -9.6 -7.58 -11.63C-8.59 -13.67 -9.09 -16.02 -9.09 -18.71C-9.09 -21.43 -8.59 -23.81 -7.58 -25.84C-6.57 -27.87 -5.19 -29.43 -3.44 -30.53C-1.7 -31.62 0.29 -32.17 2.52 -32.17C5.31 -32.17 7.67 -31.51 9.59 -30.18C11.52 -28.86 12.92 -27.07 13.81 -24.8L20.22 -24.8C19.16 -28.8 17.11 -31.96 14.07 -34.29Z M37.97 -18.92L54.46 -37.42L47.14 -37.42L32.3 -20.3L32.3 -37.42L26.26 -37.42L26.26 0L32.3 0L32.3 -17.33L47.09 0L54.46 0Z M81.28 -8.11L84.14 0L90.6 0L76.88 -36.83L69.93 -36.83L56.15 0L62.62 0L65.48 -8.11ZM79.58 -12.77L67.18 -12.77L73.38 -30.26Z"></path></g><g id="SvgjsG5455" class="RzbWEZNbyB" transform="translate(185.40763577547938, 0) scale(1)" light-content="false" fill="#d48110"><path d="M0 0 h 457.35793896742985 v 2 h -457.35793896742985 Z M0 0 h 2 v 10.024565049378733 h -2 ZM0 40.09826019751493 h 2 v 10.02456504937873 h -2 Z M457.35793896742985 50.12282524689366 h -457.35793896742985 v -2 h 457.35793896742985 Z M457.35793896742985 50.12282524689366 h -2 v -50.12282524689366 h 2 Z" fill-rule="nonzero"></path></g><g id="SvgjsG5456" class="text" transform="translate(413.13359415208913, 43.80282120331458) scale(1 1)" light-content="false" fill="#d48110"><path d="M-189.98 -16.01C-191.3 -17.67 -193.1 -18.76 -195.36 -19.29C-193.41 -19.75 -191.84 -20.73 -190.64 -22.23C-189.44 -23.74 -188.84 -25.62 -188.84 -27.88C-188.84 -30.95 -189.88 -33.32 -191.97 -34.98C-194.05 -36.64 -197 -37.47 -200.82 -37.47L-217.83 -37.47L-217.83 0L-200.39 0C-196.4 0 -193.34 -0.9 -191.2 -2.7C-189.06 -4.5 -187.99 -7.01 -187.99 -10.23C-187.99 -12.42 -188.65 -14.35 -189.98 -16.01ZM-208.77 -22.15L-208.77 -30.21L-202.94 -30.21C-199.72 -30.21 -198.11 -28.87 -198.11 -26.18C-198.11 -23.5 -199.69 -22.15 -202.83 -22.15ZM-197.27 -11.5C-197.27 -8.74 -198.94 -7.37 -202.3 -7.37L-208.77 -7.37L-208.77 -15.79L-202.35 -15.79C-200.73 -15.79 -199.47 -15.41 -198.59 -14.65C-197.71 -13.89 -197.27 -12.84 -197.27 -11.5Z M-145.54 -37.47L-155.82 -37.47L-163.03 -22.21L-170.24 -37.47L-180.62 -37.47L-167.64 -12.45L-167.64 0L-158.52 0L-158.52 -12.45Z M-107.59 -34.4C-110.63 -36.69 -114.5 -37.84 -119.2 -37.84C-122.94 -37.84 -126.22 -37.04 -129.03 -35.43C-131.84 -33.82 -134.01 -31.57 -135.55 -28.67C-137.08 -25.78 -137.85 -22.47 -137.85 -18.76C-137.85 -15.05 -137.08 -11.75 -135.55 -8.85C-134.01 -5.95 -131.83 -3.7 -129 -2.09C-126.18 -0.49 -122.87 0.32 -119.09 0.32C-115.98 0.32 -113.22 -0.26 -110.8 -1.43C-108.38 -2.6 -106.39 -4.12 -104.83 -5.99C-103.28 -7.86 -102.15 -9.89 -101.44 -12.08L-101.44 -21.04L-120.47 -21.04L-120.47 -14.52L-109.02 -14.52C-109.69 -12.33 -110.84 -10.64 -112.47 -9.46C-114.09 -8.28 -115.98 -7.68 -118.14 -7.68C-121.49 -7.68 -124.08 -8.64 -125.9 -10.55C-127.72 -12.45 -128.63 -15.19 -128.63 -18.76C-128.63 -22.05 -127.77 -24.65 -126.03 -26.58C-124.3 -28.51 -122.01 -29.47 -119.14 -29.47C-117.31 -29.47 -115.73 -29.07 -114.43 -28.28C-113.12 -27.48 -112.15 -26.41 -111.51 -25.07L-101.92 -25.07C-102.66 -28.99 -104.55 -32.1 -107.59 -34.4Z M-61.9 -34.4C-64.94 -36.69 -68.81 -37.84 -73.51 -37.84C-77.26 -37.84 -80.53 -37.04 -83.34 -35.43C-86.15 -33.82 -88.32 -31.57 -89.86 -28.67C-91.4 -25.78 -92.17 -22.47 -92.17 -18.76C-92.17 -15.05 -91.4 -11.75 -89.86 -8.85C-88.32 -5.95 -86.14 -3.7 -83.32 -2.09C-80.49 -0.49 -77.19 0.32 -73.4 0.32C-70.3 0.32 -67.53 -0.26 -65.11 -1.43C-62.69 -2.6 -60.7 -4.12 -59.15 -5.99C-57.59 -7.86 -56.46 -9.89 -55.76 -12.08L-55.76 -21.04L-74.78 -21.04L-74.78 -14.52L-63.33 -14.52C-64.01 -12.33 -65.15 -10.64 -66.78 -9.46C-68.41 -8.28 -70.3 -7.68 -72.45 -7.68C-75.81 -7.68 -78.4 -8.64 -80.22 -10.55C-82.04 -12.45 -82.94 -15.19 -82.94 -18.76C-82.94 -22.05 -82.08 -24.65 -80.35 -26.58C-78.62 -28.51 -76.32 -29.47 -73.46 -29.47C-71.62 -29.47 -70.05 -29.07 -68.74 -28.28C-67.43 -27.48 -66.46 -26.41 -65.83 -25.07L-56.23 -25.07C-56.97 -28.99 -58.87 -32.1 -61.9 -34.4Z M-36.3 -13.14L-30.69 -13.14C-27.75 -13.14 -25.26 -13.67 -23.21 -14.71C-21.16 -15.75 -19.62 -17.18 -18.58 -19C-17.53 -20.82 -17.01 -22.9 -17.01 -25.23C-17.01 -28.97 -18.18 -31.95 -20.51 -34.16C-22.84 -36.37 -26.23 -37.47 -30.69 -37.47L-45.37 -37.47L-45.37 0L-36.3 0ZM-26.23 -25.23C-26.23 -22.01 -28.05 -20.4 -31.69 -20.4L-36.3 -20.4L-36.3 -30.16L-31.69 -30.16C-28.05 -30.16 -26.23 -28.51 -26.23 -25.23Z M15.95 -6.84L18.28 0L27.93 0L14.2 -37.21L3.76 -37.21L-9.96 0L-0.42 0L1.91 -6.84ZM13.62 -13.73L4.24 -13.73L8.96 -27.51Z M55.97 0L65.99 0L57.08 -14.73C59.94 -15.44 62.12 -16.75 63.63 -18.66C65.13 -20.56 65.88 -22.88 65.88 -25.6C65.88 -27.9 65.37 -29.94 64.34 -31.72C63.32 -33.5 61.78 -34.91 59.73 -35.93C57.68 -36.96 55.17 -37.47 52.21 -37.47L36.73 -37.47L36.73 0L45.79 0L45.79 -14.15L47.86 -14.15ZM45.79 -20.35L45.79 -29.84L51.41 -29.84C53.18 -29.84 54.49 -29.41 55.36 -28.57C56.22 -27.72 56.66 -26.55 56.66 -25.07C56.66 -23.51 56.23 -22.34 55.39 -21.54C54.54 -20.75 53.21 -20.35 51.41 -20.35Z M102.66 -37.47L73.3 -37.47L73.3 -30.26L83.37 -30.26L83.37 0L92.49 0L92.49 -30.26L102.66 -30.26Z M145.06 0L145.06 -37.47L136 -37.47L136 -14.26L120.84 -37.47L111.78 -37.47L111.78 0L120.84 0L120.84 -23L136 0Z M165.68 -30.26L179.94 -30.26L179.94 -37.47L156.62 -37.47L156.62 0L179.94 0L179.94 -7.26L165.68 -7.26L165.68 -15.58L178.35 -15.58L178.35 -22.42L165.68 -22.42Z M209.61 0L219.63 0L210.73 -14.73C213.59 -15.44 215.77 -16.75 217.27 -18.66C218.78 -20.56 219.53 -22.88 219.53 -25.6C219.53 -27.9 219.01 -29.94 217.99 -31.72C216.96 -33.5 215.43 -34.91 213.38 -35.93C211.33 -36.96 208.82 -37.47 205.85 -37.47L190.38 -37.47L190.38 0L199.44 0L199.44 -14.15L201.51 -14.15ZM199.44 -20.35L199.44 -29.84L205.06 -29.84C206.82 -29.84 208.14 -29.41 209.01 -28.57C209.87 -27.72 210.3 -26.55 210.3 -25.07C210.3 -23.51 209.88 -22.34 209.03 -21.54C208.18 -20.75 206.86 -20.35 205.06 -20.35Z"></path></g></g></g></svg>